<svg width="160" height="161" viewBox="0 0 160 161" fill="none" xmlns="http://www.w3.org/2000/svg">
<path d="M0 80.0017C0 35.8174 35.8166 0 80 0C124.183 0 160 35.8174 160 80.0017C160 124.183 124.183 160.003 80 160.003C35.8166 160 0 124.183 0 80.0017Z" fill="#FFD646"/>
<path d="M44.2805 22.9806L51.9602 34.4466L48.6982 36.6294L41.0219 25.16L37.163 27.7419L35.2891 24.7748L46.1267 17.5218L48.1533 20.3813L44.2805 22.9806Z" fill="black"/>
<path d="M66.2855 20.77L72.2058 26.562L67.8437 27.8495L63.1137 22.5017L60.7643 23.1957L62.5932 29.3972L58.8487 30.5008L53.9487 13.8848L60.039 12.0872C64.1617 10.8691 66.695 11.8824 67.743 15.4256C68.4301 17.7542 67.9165 19.6838 66.2855 20.77ZM60.976 15.1827L58.6058 15.8803L59.9384 20.3986L62.2427 19.7219C63.9049 19.2291 64.4185 18.5247 63.891 16.7305C63.3913 15.0474 62.614 14.7003 60.976 15.1827Z" fill="black"/>
<path d="M76.5851 9.28315L79.6077 15.7935L80.3539 17.4905H80.4198L81.0861 15.7484L83.7686 9.16169L88.0405 9.09229L82.3527 20.9886L82.4464 26.5134L78.4764 26.5793L78.3793 21.058L72.1987 9.35603L76.5851 9.28315Z" fill="black"/>
<path d="M101.176 29.7616C99.7702 29.9837 97.7401 29.7929 95.9182 29.2758C90.2374 27.6621 88.8423 24.1258 90.4629 18.4206C92.1148 12.6077 95.3352 10.4735 100.95 12.0664C102.522 12.514 104.198 13.3018 105.33 14.1243L104.053 17.2649C103.004 16.4876 101.592 15.8005 100.214 15.4083C96.9315 14.4783 95.5642 15.384 94.4017 19.4894C93.2218 23.6399 93.8742 25.0732 96.7788 25.8991C97.4208 26.0796 98.042 26.1837 98.6181 26.1837L100.232 20.5028L103.535 21.4398L101.176 29.7616Z" fill="black"/>
<path d="M114.838 38.0939C113.426 37.8961 111.538 37.1187 109.945 36.095C104.972 32.8884 104.674 29.0884 107.898 24.098C111.177 19.014 114.883 17.9139 119.797 21.0823C121.175 21.9742 122.546 23.2131 123.389 24.334L121.251 26.968C120.474 25.9165 119.322 24.8441 118.118 24.0668C115.241 22.2171 113.672 22.6856 111.357 26.2774C109.015 29.9074 109.22 31.469 111.76 33.1105C112.326 33.4714 112.888 33.7525 113.436 33.9191L116.643 28.9496L119.533 30.8131L114.838 38.0939Z" fill="black"/>
<path d="M27.8315 124.079L24.9928 125.949L18.2466 116.284L32.4573 106.359L39.0022 115.736L36.2191 117.766L31.8674 111.533L29.0426 113.504L32.7072 118.755L30.1739 120.521L26.5058 115.278L23.2681 117.54L27.8315 124.079Z" fill="black"/>
<path d="M40.7268 128.375L38.9882 130.29L34.0986 125.859L35.8338 123.94L40.7268 128.375Z" fill="black"/>
<path d="M49.6593 144.717L52.9422 138.435L47.5771 135.631L44.2977 141.919L40.8379 140.111L48.8542 124.759L52.3106 126.563L49.2012 132.522L54.5663 135.322L57.6756 129.364L61.1146 131.161L53.0983 146.511L49.6593 144.717Z" fill="black"/>
<path d="M71.0295 147.514L64.8421 146.417L63.2978 149.568L59.2515 148.853L68.1631 132.841L72.7334 133.65L75.6658 151.765L71.3905 151.005L71.0295 147.514ZM69.0827 137.835L66.3447 143.377L70.6895 144.147L70.0856 138.012L69.9503 136.134L69.8844 136.124L69.0827 137.835Z" fill="black"/>
<path d="M93.8983 150.182L85.9688 141.715L84.7334 140.32L84.6882 140.351L84.9624 142.204L86.1805 151.223L82.7484 151.689L80.4268 134.514L83.7235 134.07L91.0353 142.107L92.2708 143.502L92.3194 143.471L92.0209 141.645L90.8688 133.105L94.28 132.643L96.6017 149.818L93.8983 150.182Z" fill="black"/>
<path d="M110.799 144.432L104.916 147.281L97.3721 131.692L103.213 128.868C108.161 126.47 111.354 127.823 113.956 133.205C116.688 138.841 115.414 142.204 110.799 144.432ZM104.687 132.026L102.404 133.133L106.919 142.464L109.23 141.35C111.618 140.195 112.201 138.959 110.271 134.968C108.48 131.269 107.165 130.828 104.687 132.026Z" fill="black"/>
<path d="M130.503 125.998L132.72 128.566L124.017 136.492L112.364 123.693L120.81 116.003L123.177 118.495L117.559 123.607L119.873 126.154L124.603 121.847L126.686 124.134L121.959 128.437L124.614 131.356L130.503 125.998Z" fill="black"/>
<path d="M140.504 111.46L143.405 113.438L137.474 122.659L122.913 113.293L125.033 109.992L136.645 117.461L140.504 111.46Z" fill="black"/>
<path d="M146.48 48.5153L138.13 49.7577L134.369 42.2062L132.97 50.5281L124.624 51.774L132.109 55.6746L130.711 63.9965L136.735 58.083L144.217 61.9802L140.455 54.4253L146.48 48.5153Z" fill="#EFAC01"/>
<path d="M153.809 85.3322L145.952 82.2505L146.456 73.8245L141.097 80.3453L133.241 77.2636L137.783 84.3744L132.425 90.8917L140.594 88.7678L145.137 95.8785L145.644 87.456L153.809 85.3322Z" fill="#EFAC01"/>
<path d="M13.8706 48.5153L22.2131 49.7577L25.9784 42.2062L27.3769 50.5281L35.7229 51.774L28.2375 55.6746L29.6325 63.9965L23.6116 58.083L16.1263 61.9802L19.888 54.4253L13.8706 48.5153Z" fill="#EFAC01"/>
<path d="M6.1875 85.3322L14.0476 82.2505L13.541 73.8245L18.9025 80.3453L26.7592 77.2636L22.2167 84.3744L27.5713 90.8917L19.4057 88.7678L14.8597 95.8785L14.3565 87.456L6.1875 85.3322Z" fill="#EFAC01"/>
<path d="M80 125.335C105.034 125.335 125.329 105.04 125.329 80.0052C125.329 54.9704 105.034 34.6756 80 34.6756C54.9657 34.6756 34.6714 54.9704 34.6714 80.0052C34.6714 105.04 54.9657 125.335 80 125.335Z" fill="#009EE2"/>
<path d="M103.92 110.988H56.0793C53.9971 110.988 52.3105 109.302 52.3105 107.22V73.0715C52.3105 70.9893 53.9971 69.3027 56.0793 69.3027H103.917C105.999 69.3027 107.686 70.9893 107.686 73.0715V107.22C107.686 109.302 105.999 110.988 103.92 110.988Z" fill="white"/>
<path d="M79.9999 48.2794C86.9613 48.2794 92.6247 53.943 92.6247 60.9045V74.595C92.6247 81.5565 86.9613 87.2201 79.9999 87.2201C73.0386 87.2201 67.3751 81.5565 67.3751 74.595V60.9045C67.3716 53.943 73.0386 48.2794 79.9999 48.2794ZM79.9999 40.367C68.6591 40.367 59.4629 49.5634 59.4629 60.9045V74.595C59.4629 85.936 68.6591 95.1324 79.9999 95.1324C91.3407 95.1324 100.537 85.936 100.537 74.595V60.9045C100.537 49.5634 91.3407 40.367 79.9999 40.367Z" fill="white"/>
<path d="M84.7607 85.6237C84.7607 87.1784 84.0181 88.5596 82.8729 89.4376V98.1135C82.8729 99.7168 81.5715 101.018 79.9683 101.018C78.3615 101.018 77.0602 99.7168 77.0602 98.1135V89.4376C75.9115 88.5631 75.1724 87.1784 75.1724 85.6237C75.1724 82.9724 77.3205 80.8242 79.9717 80.8242C82.6126 80.8242 84.7607 82.9724 84.7607 85.6237Z" fill="#009EE2"/>
</svg>
